# xmcd CD database file
#
# Track frame offsets:
#	150
#	49093
#	74870
#
# Disc length: 1327 seconds
#
# Revision: 1
# Processed by: cddbd v1.5PL3 Copyright (c) Steve Scherf et al.
# Submitted via: CDex 1.50
#
DISCID=2b052d03
DTITLE=Y.M.O. - YMO MEGA MIX
DYEAR=1990
DGENRE=Techno
TTITLE0=YMO MEGA MIX
TTITLE1=Firecracker (Remix)
TTITLE2=Behind The Mask (Remix)
EXTD=YEAR: 1990
EXTT0=
EXTT1=
EXTT2=
PLAYORDER=
